<svg xmlns="http://www.w3.org/2000/svg" viewBox="0 0 512 512">
  <rect width="512" height="512" rx="80" fill="#111113"/>
  <path d="M151.23 300.91L201.86 295.99Q206.43 321.48 220.40 333.43Q234.38 345.38 258.11 345.38Q283.25 345.38 295.99 334.75Q308.73 324.12 308.73 309.88Q308.73 300.74 303.37 294.32Q298.01 287.90 284.65 283.16Q275.51 279.99 242.99 271.91Q201.16 261.54 184.28 246.42Q160.55 225.15 160.55 194.56Q160.55 174.88 171.71 157.74Q182.88 140.60 203.88 131.63Q224.89 122.67 254.59 122.67Q303.11 122.67 327.63 143.94Q352.15 165.21 353.38 200.72L301.35 203.00Q298.01 183.14 287.03 174.44Q276.04 165.74 254.07 165.74Q231.39 165.74 218.56 175.05Q210.30 181.03 210.30 191.05Q210.30 200.19 218.03 206.69Q227.88 214.96 265.84 223.92Q303.81 232.88 322.01 242.46Q340.20 252.04 350.48 268.66Q360.77 285.27 360.77 309.70Q360.77 331.85 348.46 351.19Q336.16 370.52 313.66 379.93Q291.16 389.33 257.58 389.33Q208.71 389.33 182.52 366.74Q156.33 344.15 151.23 300.91Z" fill="#fafafa"/>
</svg>
